Source-HROTd_VROTd.ufo
<glyph name="parenleft" format="2">
  <advance width="452"/>
  <unicode hex="0028"/>
  <outline>
    <contour>
      <point x="379" y="-179" type="curve" smooth="yes"/>
      <point x="322" y="-163"/>
      <point x="267" y="-133"/>
      <point x="219" y="-88" type="curve" smooth="yes"/>
      <point x="133" y="-6"/>
      <point x="69" y="125"/>
      <point x="69" y="305" type="curve" smooth="yes"/>
      <point x="69" y="485"/>
      <point x="133" y="616"/>
      <point x="219" y="698" type="curve" smooth="yes"/>
      <point x="267" y="743"/>
      <point x="322" y="773"/>
      <point x="379" y="789" type="curve" smooth="yes"/>
      <point x="444" y="808"/>
      <point x="468" y="721"/>
      <point x="403" y="703" type="curve" smooth="yes"/>
      <point x="360" y="691"/>
      <point x="317" y="667"/>
      <point x="281" y="632" type="curve" smooth="yes"/>
      <point x="209" y="564"/>
      <point x="159" y="455"/>
      <point x="159" y="305" type="curve" smooth="yes"/>
      <point x="159" y="155"/>
      <point x="209" y="46"/>
      <point x="281" y="-22" type="curve" smooth="yes"/>
      <point x="317" y="-57"/>
      <point x="360" y="-81"/>
      <point x="403" y="-93" type="curve" smooth="yes"/>
      <point x="468" y="-111"/>
      <point x="444" y="-198"/>
    </contour>
  </outline>
</glyph>
<glyph name="slash" format="2">
  <advance width="490"/>
  <unicode hex="002F"/>
  <outline>
    <contour>
      <point x="421" y="716" type="curve" smooth="yes"/>
      <point x="407" y="674"/>
      <point x="393" y="631"/>
      <point x="379" y="588" type="curve" smooth="yes"/>
      <point x="319" y="407"/>
      <point x="255" y="215"/>
      <point x="191" y="17" type="curve" smooth="yes"/>
      <point x="174" y="-34"/>
      <point x="157" y="-84"/>
      <point x="141" y="-134" type="curve" smooth="yes"/>
      <point x="120" y="-198"/>
      <point x="35" y="-171"/>
      <point x="55" y="-106" type="curve" smooth="yes"/>
      <point x="71" y="-56"/>
      <point x="88" y="-6"/>
      <point x="105" y="45" type="curve" smooth="yes"/>
      <point x="167" y="235"/>
      <point x="231" y="427"/>
      <point x="293" y="616" type="curve" smooth="yes"/>
      <point x="307" y="659"/>
      <point x="321" y="702"/>
      <point x="335" y="744" type="curve" smooth="yes"/>
      <point x="357" y="808"/>
      <point x="442" y="780"/>
    </contour>
  </outline>
</glyph>
<glyph name="colon" format="2">
  <advance width="260"/>
  <unicode hex="003A"/>
  <outline>
    <contour>
      <point x="89" y="36" type="curve" smooth="yes"/>
      <point x="89.0" y="66.0"/>
      <point x="89.0" y="59.0"/>
      <point x="89" y="90" type="curve" smooth="yes"/>
      <point x="89.0" y="157.0"/>
      <point x="179.0" y="157.0"/>
      <point x="179" y="90" type="curve" smooth="yes"/>
      <point x="179.0" y="59.0"/>
      <point x="179.0" y="66.0"/>
      <point x="179" y="36" type="curve" smooth="yes"/>
      <point x="179.0" y="-32.0"/>
      <point x="89.0" y="-32.0"/>
    </contour>
    <contour>
      <point x="89" y="395" type="curve" smooth="yes"/>
      <point x="89.0" y="425.0"/>
      <point x="89.0" y="418.0"/>
      <point x="89" y="449" type="curve" smooth="yes"/>
      <point x="89.0" y="516.0"/>
      <point x="179.0" y="516.0"/>
      <point x="179" y="449" type="curve" smooth="yes"/>
      <point x="179.0" y="418.0"/>
      <point x="179.0" y="425.0"/>
      <point x="179" y="395" type="curve" smooth="yes"/>
      <point x="179.0" y="327.0"/>
      <point x="89.0" y="327.0"/>
    </contour>
  </outline>
</glyph>
<glyph name="question" format="2">
  <advance width="511"/>
  <unicode hex="003F"/>
  <outline>
    <contour>
      <point x="71" y="653" type="curve" smooth="yes"/>
      <point x="130" y="677"/>
      <point x="189" y="688"/>
      <point x="241" y="688" type="curve" smooth="yes"/>
      <point x="378" y="688"/>
      <point x="472" y="613"/>
      <point x="472" y="509" type="curve" smooth="yes"/>
      <point x="472" y="439"/>
      <point x="425" y="371"/>
      <point x="338" y="336" type="curve" smooth="yes"/>
      <point x="277" y="311"/>
      <point x="271" y="307"/>
      <point x="271" y="266" type="curve" smooth="yes"/>
      <point x="271" y="199"/>
      <point x="181" y="199"/>
      <point x="181" y="266" type="curve" smooth="yes"/>
      <point x="181" y="321"/>
      <point x="194" y="374"/>
      <point x="304" y="420" type="curve" smooth="yes"/>
      <point x="351" y="438"/>
      <point x="382" y="472"/>
      <point x="382" y="509" type="curve" smooth="yes"/>
      <point x="382" y="566"/>
      <point x="317" y="598"/>
      <point x="241" y="598" type="curve" smooth="yes"/>
      <point x="199" y="598"/>
      <point x="152" y="589"/>
      <point x="105" y="569" type="curve" smooth="yes"/>
      <point x="43" y="544"/>
      <point x="8" y="627"/>
    </contour>
    <contour>
      <point x="182" y="36" type="curve" smooth="yes"/>
      <point x="182.0" y="66.0"/>
      <point x="182.0" y="59.0"/>
      <point x="182" y="90" type="curve" smooth="yes"/>
      <point x="182.0" y="157.0"/>
      <point x="272.0" y="157.0"/>
      <point x="272" y="90" type="curve" smooth="yes"/>
      <point x="272.0" y="59.0"/>
      <point x="272.0" y="66.0"/>
      <point x="272" y="36" type="curve" smooth="yes"/>
      <point x="272.0" y="-32.0"/>
      <point x="182.0" y="-32.0"/>
    </contour>
  </outline>
</glyph>
<glyph name="X" format="2">
  <advance width="617"/>
  <unicode hex="0058"/>
  <outline>
    <contour>
      <point x="138.90530856515974" y="665.710496340956" type="curve" smooth="yes"/>
      <point x="161.8004296685004" y="632.8525146704031"/>
      <point x="186" y="599"/>
      <point x="220" y="551" type="curve" smooth="yes"/>
      <point x="253" y="505"/>
      <point x="301.89163846667736" y="433.821142782065"/>
      <point x="345.699707660321" y="372.0030922441246" type="curve" smooth="yes"/>
      <point x="391.95190682981513" y="306.73610288853064"/>
      <point x="435" y="251"/>
      <point x="468" y="205" type="curve" smooth="yes"/>
      <point x="508" y="148"/>
      <point x="537.4960337362432" y="106.27604006580948"/>
      <point x="566.4115284980846" y="66.39260069074444" type="curve" smooth="yes"/>
      <point x="606.0318406628534" y="11.743896552711284"/>
      <point x="533.1669018121426" y="-41.083186333647035"/>
      <point x="493.5465896473738" y="13.565517804386126" type="curve" smooth="yes"/>
      <point x="464.4546985737751" y="53.69226242682493"/>
      <point x="435" y="96"/>
      <point x="396" y="151" type="curve" smooth="yes"/>
      <point x="361" y="199"/>
      <point x="318.3183832230461" y="254.98451270434492"/>
      <point x="272.26887054989584" y="319.96548890517175" type="curve" smooth="yes"/>
      <point x="229.37032401705682" y="380.500101965818"/>
      <point x="181" y="451"/>
      <point x="146" y="501" type="curve" smooth="yes"/>
      <point x="113" y="547"/>
      <point x="88.1560291108184" y="581.1164364102452"/>
      <point x="65.06325803913356" y="614.2580758525884" type="curve" smooth="yes"/>
      <point x="26.473942672857746" y="669.639613747108"/>
      <point x="100.31599319888393" y="721.0920342354756"/>
    </contour>
    <contour>
      <point x="558.3721652385077" y="613.5113244387486" type="curve" smooth="yes"/>
      <point x="534.4301315989571" y="580.5910268055036"/>
      <point x="510" y="547"/>
      <point x="475" y="498" type="curve" smooth="yes"/>
      <point x="441" y="451"/>
      <point x="391.3883537760102" y="382.5372205973393"/>
      <point x="345.31174885596954" y="319.4323025306748" type="curve" smooth="yes"/>
      <point x="298.0761316822557" y="254.74004152862625"/>
      <point x="256" y="196"/>
      <point x="221" y="148" type="curve" smooth="yes"/>
      <point x="183" y="95"/>
      <point x="152.58511582215647" y="52.425630598556594"/>
      <point x="124.41153628491367" y="13.565519259260697" type="curve" smooth="yes"/>
      <point x="84.79122630245678" y="-41.08318646094851"/>
      <point x="11.92628534217782" y="11.743893515660673"/>
      <point x="51.546595324634715" y="66.39259923586988" type="curve" smooth="yes"/>
      <point x="80.49102485005585" y="106.3159519828437"/>
      <point x="111" y="148"/>
      <point x="150" y="203" type="curve" smooth="yes"/>
      <point x="184" y="250"/>
      <point x="226.57183529737424" y="309.4314813162686"/>
      <point x="272.62541342834936" y="372.5048626922451" type="curve" smooth="yes"/>
      <point x="318.5372671719567" y="435.3841432687289"/>
      <point x="368" y="503"/>
      <point x="401" y="548" type="curve" smooth="yes"/>
      <point x="437" y="599"/>
      <point x="461.53392883227536" y="633.375291218257"/>
      <point x="485.5859165965546" y="666.4467757793367" type="curve" smooth="yes"/>
      <point x="525.2875051019957" y="721.0364622608015"/>
      <point x="598.0737537439488" y="668.1010109202134"/>
    </contour>
  </outline>
</glyph>
<glyph name="backslash" format="2">
  <advance width="490"/>
  <unicode hex="005C"/>
  <outline>
    <contour>
      <point x="349" y="-134" type="curve" smooth="yes"/>
      <point x="333" y="-80"/>
      <point x="318" y="-40"/>
      <point x="286" y="56" type="curve" smooth="yes"/>
      <point x="240" y="198"/>
      <point x="168" y="422"/>
      <point x="122" y="559" type="curve" smooth="yes"/>
      <point x="94" y="643"/>
      <point x="84" y="668"/>
      <point x="69" y="716" type="curve" smooth="yes"/>
      <point x="49" y="780"/>
      <point x="135" y="808"/>
      <point x="155" y="744" type="curve" smooth="yes"/>
      <point x="169.0" y="700.0"/>
      <point x="180" y="671"/>
      <point x="207" y="589" type="curve" smooth="yes"/>
      <point x="253" y="451"/>
      <point x="323" y="233"/>
      <point x="373" y="81" type="curve" smooth="yes"/>
      <point x="404" y="-12"/>
      <point x="417.0" y="-53.0"/>
      <point x="435" y="-106" type="curve" smooth="yes"/>
      <point x="457" y="-171"/>
      <point x="368" y="-198"/>
    </contour>
  </outline>
</glyph>
<glyph name="g" format="2">
  <advance width="556"/>
  <unicode hex="0067"/>
  <anchor x="286" y="507" name="above"/>
  <anchor x="282" y="-172" name="below"/>
  <outline>
    <contour>
      <point x="138" y="-55" type="curve" smooth="yes"/>
      <point x="246" y="-108"/>
      <point x="400" y="-79"/>
      <point x="400" y="49" type="curve" smooth="yes"/>
      <point x="400" y="143"/>
      <point x="400" y="217"/>
      <point x="400" y="280" type="curve" smooth="yes"/>
      <point x="400" y="362"/>
      <point x="344" y="418"/>
      <point x="264" y="418" type="curve" smooth="yes"/>
      <point x="185" y="418"/>
      <point x="129" y="360"/>
      <point x="129" y="278" type="curve" smooth="yes"/>
      <point x="129" y="194"/>
      <point x="185" y="136"/>
      <point x="265" y="136" type="curve" smooth="yes"/>
      <point x="345" y="136"/>
      <point x="400" y="193"/>
      <point x="400" y="276" type="curve" smooth="yes"/>
      <point x="400" y="331"/>
      <point x="400" y="403"/>
      <point x="400" y="458" type="curve" smooth="yes"/>
      <point x="400" y="526"/>
      <point x="490" y="525"/>
      <point x="490" y="458" type="curve" smooth="yes"/>
      <point x="490" y="391"/>
      <point x="490" y="343"/>
      <point x="490" y="276" type="curve" smooth="yes"/>
      <point x="490" y="143"/>
      <point x="393" y="46"/>
      <point x="265" y="46" type="curve" smooth="yes"/>
      <point x="137" y="46"/>
      <point x="39" y="144"/>
      <point x="39" y="278" type="curve" smooth="yes"/>
      <point x="39" y="410"/>
      <point x="137" y="508"/>
      <point x="264" y="508" type="curve" smooth="yes"/>
      <point x="393" y="508"/>
      <point x="490" y="412"/>
      <point x="490" y="280" type="curve" smooth="yes"/>
      <point x="490" y="186"/>
      <point x="490" y="112"/>
      <point x="490" y="49" type="curve" smooth="yes"/>
      <point x="490" y="-149"/>
      <point x="267" y="-218"/>
      <point x="98" y="-137" type="curve" smooth="yes"/>
      <point x="38" y="-107"/>
      <point x="77" y="-26"/>
    </contour>
  </outline>
</glyph>
<glyph name="ordfeminine" format="2">
  <advance width="495"/>
  <unicode hex="00AA"/>
  <outline>
    <contour>
      <point x="399" y="133" type="curve" smooth="yes"/>
      <point x="281" y="133"/>
      <point x="185" y="133"/>
      <point x="106" y="133" type="curve" smooth="yes"/>
      <point x="38" y="133"/>
      <point x="39" y="223"/>
      <point x="106" y="223" type="curve" smooth="yes"/>
      <point x="224" y="223"/>
      <point x="320" y="223"/>
      <point x="399" y="223" type="curve" smooth="yes"/>
      <point x="467" y="223"/>
      <point x="467" y="133"/>
    </contour>
    <contour>
      <point x="431" y="642" type="curve" smooth="yes"/>
      <point x="431" y="594"/>
      <point x="431" y="548"/>
      <point x="431" y="495" type="curve" smooth="yes"/>
      <point x="431" y="383"/>
      <point x="352" y="305"/>
      <point x="247" y="305" type="curve" smooth="yes"/>
      <point x="141" y="305"/>
      <point x="61" y="387"/>
      <point x="61" y="498" type="curve" smooth="yes"/>
      <point x="61" y="610"/>
      <point x="141" y="690"/>
      <point x="246" y="690" type="curve" smooth="yes"/>
      <point x="343" y="690"/>
      <point x="431" y="614"/>
      <point x="431" y="501" type="curve" smooth="yes"/>
      <point x="431" y="410"/>
      <point x="431" y="383"/>
      <point x="431" y="354" type="curve" smooth="yes"/>
      <point x="431" y="287"/>
      <point x="341" y="287"/>
      <point x="341" y="354" type="curve" smooth="yes"/>
      <point x="341" y="398"/>
      <point x="341" y="440"/>
      <point x="341" y="501" type="curve" smooth="yes"/>
      <point x="341" y="560"/>
      <point x="297" y="600"/>
      <point x="246" y="600" type="curve" smooth="yes"/>
      <point x="189" y="600"/>
      <point x="151" y="558"/>
      <point x="151" y="498" type="curve" smooth="yes"/>
      <point x="151" y="438"/>
      <point x="189" y="395"/>
      <point x="247" y="395" type="curve" smooth="yes"/>
      <point x="304" y="395"/>
      <point x="341" y="435"/>
      <point x="341" y="495" type="curve" smooth="yes"/>
      <point x="341" y="574"/>
      <point x="341" y="610"/>
      <point x="341" y="642" type="curve" smooth="yes"/>
      <point x="341" y="710"/>
      <point x="431" y="710"/>
    </contour>
  </outline>
</glyph>
<glyph name="Eth" format="2">
  <advance width="670"/>
  <unicode hex="00D0"/>
  <outline>
    <contour>
      <point x="315" y="295" type="curve" smooth="yes"/>
      <point x="181" y="295"/>
      <point x="102" y="295"/>
      <point x="45" y="295" type="curve" smooth="yes"/>
      <point x="-23" y="295"/>
      <point x="-22" y="385"/>
      <point x="45" y="385" type="curve" smooth="yes"/>
      <point x="130" y="385"/>
      <point x="225" y="385"/>
      <point x="315" y="385" type="curve" smooth="yes"/>
      <point x="383" y="385"/>
      <point x="383" y="295"/>
    </contour>
    <contour>
      <point x="90.0" y="49.0" type="curve" smooth="yes"/>
      <point x="90.0" y="77.0"/>
      <point x="90" y="109"/>
      <point x="90" y="197" type="curve" smooth="yes"/>
      <point x="90" y="279"/>
      <point x="90" y="374"/>
      <point x="90" y="496" type="curve" smooth="yes"/>
      <point x="90" y="653"/>
      <point x="105.0" y="680.0"/>
      <point x="183" y="680" type="curve" smooth="yes"/>
      <point x="227.0" y="680.0"/>
      <point x="244" y="680"/>
      <point x="322" y="680" type="curve" smooth="yes"/>
      <point x="518" y="680"/>
      <point x="625" y="537"/>
      <point x="625" y="341" type="curve" smooth="yes"/>
      <point x="625" y="143"/>
      <point x="499" y="0"/>
      <point x="313" y="0" type="curve" smooth="yes"/>
      <point x="287" y="0"/>
      <point x="261" y="0"/>
      <point x="235" y="0" type="curve" smooth="yes"/>
      <point x="167" y="0"/>
      <point x="167" y="90"/>
      <point x="235" y="90" type="curve" smooth="yes"/>
      <point x="263" y="90"/>
      <point x="285" y="90"/>
      <point x="313" y="90" type="curve" smooth="yes"/>
      <point x="451" y="90"/>
      <point x="535" y="195"/>
      <point x="535" y="341" type="curve" smooth="yes"/>
      <point x="535" y="487"/>
      <point x="468" y="590"/>
      <point x="322" y="590" type="curve" smooth="yes"/>
      <point x="263" y="590"/>
      <point x="241.0" y="590.0"/>
      <point x="194.0" y="590.0" type="curve" smooth="yes"/>
      <point x="173.0" y="590.0"/>
      <point x="180.0" y="549.0"/>
      <point x="180" y="496" type="curve" smooth="yes"/>
      <point x="180.0" y="414.0"/>
      <point x="180" y="319"/>
      <point x="180" y="197" type="curve" smooth="yes"/>
      <point x="180" y="99"/>
      <point x="180.0" y="81.0"/>
      <point x="180.0" y="49.0" type="curve" smooth="yes"/>
      <point x="180.0" y="-19.0"/>
      <point x="90.0" y="-19.0"/>
    </contour>
  </outline>
</glyph>
<glyph name="Oslash" format="2">
  <advance width="732"/>
  <unicode hex="00D8"/>
  <anchor x="366" y="3" name="below"/>
  <anchor x="356" y="682" name="above"/>
  <outline>
    <contour>
      <point x="604" y="688" type="curve" smooth="yes"/>
      <point x="509" y="511"/>
      <point x="343" y="205"/>
      <point x="294" y="114" type="curve" smooth="yes"/>
      <point x="245" y="23"/>
      <point x="246.0" y="15.0"/>
      <point x="219.0" y="-47.0" type="curve" smooth="yes"/>
      <point x="192.0" y="-109.0"/>
      <point x="102.0" y="-72.0"/>
      <point x="128.0" y="-11.0" type="curve" smooth="yes"/>
      <point x="154.0" y="50.0"/>
      <point x="136" y="86"/>
      <point x="104" y="134" type="curve" smooth="yes"/>
      <point x="70" y="184"/>
      <point x="45" y="248"/>
      <point x="45" y="341" type="curve" smooth="yes"/>
      <point x="45" y="544"/>
      <point x="178" y="690"/>
      <point x="364" y="690" type="curve" smooth="yes"/>
      <point x="551" y="690"/>
      <point x="687" y="546"/>
      <point x="687" y="341" type="curve" smooth="yes"/>
      <point x="687" y="233"/>
      <point x="649" y="142"/>
      <point x="587" y="79" type="curve" smooth="yes"/>
      <point x="531" y="24"/>
      <point x="453" y="-4"/>
      <point x="367" y="-10" type="curve" smooth="yes"/>
      <point x="300" y="-14"/>
      <point x="294" y="75"/>
      <point x="361" y="80" type="curve" smooth="yes"/>
      <point x="423" y="84"/>
      <point x="483" y="102"/>
      <point x="523" y="143" type="curve" smooth="yes"/>
      <point x="570" y="190"/>
      <point x="597" y="259"/>
      <point x="597" y="341" type="curve" smooth="yes"/>
      <point x="597" y="494"/>
      <point x="503" y="600"/>
      <point x="364" y="600" type="curve" smooth="yes"/>
      <point x="226" y="600"/>
      <point x="135" y="492"/>
      <point x="135" y="341" type="curve" smooth="yes"/>
      <point x="135" y="270"/>
      <point x="152" y="222"/>
      <point x="195" y="159" type="curve" smooth="yes"/>
      <point x="238" y="95"/>
      <point x="246.0" y="15.0"/>
      <point x="219.0" y="-47.0" type="curve" smooth="yes"/>
      <point x="192.0" y="-109.0"/>
      <point x="102.0" y="-72.0"/>
      <point x="128.0" y="-11.0" type="curve" smooth="yes"/>
      <point x="154.0" y="50.0"/>
      <point x="175.0" y="85.0"/>
      <point x="212.0" y="153.0" type="curve" smooth="yes"/>
      <point x="249.0" y="221.0"/>
      <point x="421" y="537"/>
      <point x="524" y="730" type="curve" smooth="yes"/>
      <point x="556" y="790"/>
      <point x="636" y="747"/>
    </contour>
  </outline>
</glyph>
<glyph name="germandbls" format="2">
  <advance width="551"/>
  <unicode hex="00DF"/>
  <outline>
    <contour>
      <point x="244" y="83" type="curve" smooth="yes"/>
      <point x="354" y="62"/>
      <point x="422" y="144"/>
      <point x="422" y="215" type="curve" smooth="yes"/>
      <point x="422" y="263"/>
      <point x="402" y="300"/>
      <point x="362" y="319" type="curve" smooth="yes"/>
      <point x="335" y="332"/>
      <point x="296" y="338"/>
      <point x="234" y="345" type="curve" smooth="yes"/>
      <point x="184" y="351"/>
      <point x="185" y="417"/>
      <point x="226" y="427" type="curve" smooth="yes"/>
      <point x="287" y="442"/>
      <point x="311" y="456"/>
      <point x="332" y="473" type="curve" smooth="yes"/>
      <point x="353" y="490"/>
      <point x="369" y="513"/>
      <point x="369" y="555" type="curve" smooth="yes"/>
      <point x="369" y="606"/>
      <point x="328" y="648"/>
      <point x="266" y="648" type="curve" smooth="yes"/>
      <point x="197" y="648"/>
      <point x="159" y="608"/>
      <point x="159" y="540" type="curve" smooth="yes"/>
      <point x="159" y="405"/>
      <point x="159" y="177"/>
      <point x="159" y="40" type="curve" smooth="yes"/>
      <point x="159" y="-28"/>
      <point x="69" y="-27"/>
      <point x="69" y="40" type="curve" smooth="yes"/>
      <point x="69" y="177"/>
      <point x="69" y="404"/>
      <point x="69" y="540" type="curve" smooth="yes"/>
      <point x="69" y="658"/>
      <point x="147" y="738"/>
      <point x="266" y="738" type="curve" smooth="yes"/>
      <point x="376" y="738"/>
      <point x="459" y="654"/>
      <point x="459" y="555" type="curve" smooth="yes"/>
      <point x="459" y="495"/>
      <point x="441" y="446"/>
      <point x="400" y="412" type="curve" smooth="yes"/>
      <point x="356" y="375"/>
      <point x="296" y="338"/>
      <point x="234" y="345" type="curve" smooth="yes"/>
      <point x="184" y="351"/>
      <point x="185" y="417"/>
      <point x="226" y="427" type="curve" smooth="yes"/>
      <point x="287" y="442"/>
      <point x="362" y="420"/>
      <point x="404" y="398" type="curve" smooth="yes"/>
      <point x="489" y="353"/>
      <point x="512" y="290"/>
      <point x="512" y="212" type="curve" smooth="yes"/>
      <point x="512" y="102"/>
      <point x="404" y="-38"/>
      <point x="228" y="-5" type="curve" smooth="yes"/>
      <point x="161" y="8"/>
      <point x="178" y="95"/>
    </contour>
  </outline>
</glyph>
<glyph name="Iogonek" format="2">
  <advance width="270"/>
  <unicode hex="012E"/>
  <anchor x="134" y="43" name="below"/>
  <anchor x="134" y="690" name="above"/>
  <outline>
    <contour>
      <point x="148" y="-11" type="curve" smooth="yes"/>
      <point x="115" y="-26"/>
      <point x="100" y="-35"/>
      <point x="100" y="-59" type="curve" smooth="yes"/>
      <point x="100" y="-81"/>
      <point x="123" y="-86"/>
      <point x="158" y="-70" type="curve" smooth="yes"/>
      <point x="219" y="-42"/>
      <point x="256" y="-125"/>
      <point x="194" y="-152" type="curve" smooth="yes"/>
      <point x="80" y="-203"/>
      <point x="10" y="-131"/>
      <point x="10" y="-59" type="curve" smooth="yes"/>
      <point x="10" y="-3"/>
      <point x="35" y="37"/>
      <point x="110" y="71" type="curve" smooth="yes"/>
      <point x="172" y="99"/>
      <point x="209" y="17"/>
    </contour>
    <component base="I"/>
  </outline>
</glyph>
<glyph name="tbar" format="2">
  <advance width="336"/>
  <unicode hex="0167"/>
  <anchor x="165" y="640" name="above"/>
  <anchor x="165" y="-10" name="below"/>
  <anchor x="235" y="501" name="right"/>
  <outline>
    <contour>
      <point x="77" y="338" type="curve" smooth="yes"/>
      <point x="151" y="338"/>
      <point x="210" y="338"/>
      <point x="259" y="338" type="curve" smooth="yes"/>
      <point x="327" y="338"/>
      <point x="327" y="248"/>
      <point x="259" y="248" type="curve" smooth="yes"/>
      <point x="186" y="248"/>
      <point x="127" y="248"/>
      <point x="77" y="248" type="curve" smooth="yes"/>
      <point x="10" y="248"/>
      <point x="10" y="338"/>
    </contour>
    <component base="t"/>
  </outline>
</glyph>
<glyph name="oogonek" format="2">
  <advance width="577"/>
  <unicode hex="01EB"/>
  <anchor x="288" y="507" name="above"/>
  <anchor x="288" y="21" name="below"/>
  <outline>
    <contour>
      <point x="180" y="13" type="curve" smooth="yes"/>
      <point x="141" y="32"/>
      <point x="110" y="58"/>
      <point x="84" y="94" type="curve" smooth="yes"/>
      <point x="56" y="137"/>
      <point x="39" y="189"/>
      <point x="39" y="249" type="curve" smooth="yes"/>
      <point x="39" y="399"/>
      <point x="146" y="508"/>
      <point x="288" y="508" type="curve" smooth="yes"/>
      <point x="431" y="508"/>
      <point x="538" y="398"/>
      <point x="538" y="249" type="curve" smooth="yes"/>
      <point x="538" y="123"/>
      <point x="475" y="52"/>
      <point x="360" y="12" type="curve" smooth="yes"/>
      <point x="307" y="-7"/>
      <point x="277" y="-24"/>
      <point x="277" y="-50" type="curve" smooth="yes"/>
      <point x="277" y="-75"/>
      <point x="299" y="-77"/>
      <point x="335" y="-61" type="curve" smooth="yes"/>
      <point x="396" y="-33"/>
      <point x="433" y="-116"/>
      <point x="371" y="-143" type="curve" smooth="yes"/>
      <point x="258" y="-194"/>
      <point x="187" y="-129"/>
      <point x="187" y="-50" type="curve" smooth="yes"/>
      <point x="187" y="7"/>
      <point x="216" y="57"/>
      <point x="330" y="96" type="curve" smooth="yes"/>
      <point x="409" y="124"/>
      <point x="448" y="163"/>
      <point x="448" y="249" type="curve" smooth="yes"/>
      <point x="448" y="348"/>
      <point x="383" y="418"/>
      <point x="288" y="418" type="curve" smooth="yes"/>
      <point x="194" y="418"/>
      <point x="129" y="347"/>
      <point x="129" y="249" type="curve" smooth="yes"/>
      <point x="129" y="209"/>
      <point x="140" y="173"/>
      <point x="158" y="146" type="curve" smooth="yes"/>
      <point x="174" y="122"/>
      <point x="193" y="106"/>
      <point x="218" y="95" type="curve" smooth="yes"/>
      <point x="279" y="66"/>
      <point x="241" y="-15"/>
    </contour>
  </outline>
</glyph>
<glyph name="schwa" format="2">
  <advance width="548"/>
  <unicode hex="0259"/>
  <outline>
    <contour>
      <point x="381" y="204" type="curve" smooth="yes"/>
      <point x="324" y="204"/>
      <point x="250" y="204"/>
      <point x="184" y="204" type="curve" smooth="yes"/>
      <point x="151" y="204"/>
      <point x="134" y="209"/>
      <point x="139" y="184" type="curve" smooth="yes"/>
      <point x="152" y="119"/>
      <point x="202" y="80"/>
      <point x="269" y="80" type="curve" smooth="yes"/>
      <point x="360" y="80"/>
      <point x="422" y="148"/>
      <point x="422" y="250" type="curve" smooth="yes"/>
      <point x="422" y="358"/>
      <point x="354" y="419"/>
      <point x="260" y="419" type="curve" smooth="yes"/>
      <point x="217" y="419"/>
      <point x="169" y="406"/>
      <point x="122" y="379" type="curve" smooth="yes"/>
      <point x="63" y="346"/>
      <point x="19" y="424"/>
      <point x="78" y="457" type="curve" smooth="yes"/>
      <point x="141" y="493"/>
      <point x="203" y="509"/>
      <point x="260" y="509" type="curve" smooth="yes"/>
      <point x="400" y="509"/>
      <point x="512" y="412"/>
      <point x="512" y="250" type="curve" smooth="yes"/>
      <point x="512" y="95"/>
      <point x="406" y="-10"/>
      <point x="269" y="-10" type="curve" smooth="yes"/>
      <point x="158" y="-10"/>
      <point x="72" y="59"/>
      <point x="51" y="168" type="curve" smooth="yes"/>
      <point x="35" y="252"/>
      <point x="71" y="294"/>
      <point x="184" y="294" type="curve" smooth="yes"/>
      <point x="270" y="294"/>
      <point x="325" y="294"/>
      <point x="381" y="294" type="curve" smooth="yes"/>
      <point x="449" y="294"/>
      <point x="449" y="204"/>
    </contour>
  </outline>
</glyph>
<glyph name="verticallinemod" format="2">
  <advance width="300"/>
  <unicode hex="02C8"/>
  <outline>
    <contour>
      <point x="195" y="635" type="curve" smooth="yes"/>
      <point x="195" y="559"/>
      <point x="195" y="499"/>
      <point x="195" y="448" type="curve" smooth="yes"/>
      <point x="195" y="381"/>
      <point x="105" y="381"/>
      <point x="105" y="448" type="curve" smooth="yes"/>
      <point x="105" y="524"/>
      <point x="105" y="584"/>
      <point x="105" y="635" type="curve" smooth="yes"/>
      <point x="105" y="703"/>
      <point x="195" y="703"/>
    </contour>
  </outline>
</glyph>
<glyph name="hookabovecmb" format="2">
  <unicode hex="0309"/>
  <anchor x="0" y="497" name="_above"/>
  <anchor x="0" y="773" name="above"/>
  <anchor x="0" y="497" name="_aboveright"/>
  <outline>
    <contour>
      <point x="-40" y="623" type="curve" smooth="yes"/>
      <point x="-10" y="627"/>
      <point x="14" y="632"/>
      <point x="14" y="664" type="curve" smooth="yes"/>
      <point x="14" y="694"/>
      <point x="-9" y="695"/>
      <point x="-40" y="684" type="curve" smooth="yes"/>
      <point x="-104" y="663"/>
      <point x="-132" y="749"/>
      <point x="-68" y="770" type="curve" smooth="yes"/>
      <point x="27" y="801"/>
      <point x="104" y="756"/>
      <point x="104" y="664" type="curve" smooth="yes"/>
      <point x="104" y="583"/>
      <point x="50" y="545"/>
      <point x="-28" y="533" type="curve" smooth="yes"/>
      <point x="-94" y="524"/>
      <point x="-107" y="613"/>
    </contour>
  </outline>
</glyph>
<glyph name="hungarumlautcmb" format="2">
  <unicode hex="030B"/>
  <anchor x="0" y="497" name="_above"/>
  <anchor x="0" y="708" name="above"/>
  <outline>
    <contour>
      <point x="17" y="671" type="curve" smooth="yes"/>
      <point x="-16" y="632"/>
      <point x="-42" y="601"/>
      <point x="-64" y="575" type="curve" smooth="yes"/>
      <point x="-107" y="523"/>
      <point x="-176" y="581"/>
      <point x="-132" y="633" type="curve" smooth="yes"/>
      <point x="-99" y="672"/>
      <point x="-73" y="703"/>
      <point x="-51" y="729" type="curve" smooth="yes"/>
      <point x="-8" y="781"/>
      <point x="61" y="723"/>
    </contour>
    <contour>
      <point x="197" y="671" type="curve" smooth="yes"/>
      <point x="164" y="632"/>
      <point x="138" y="601"/>
      <point x="116" y="575" type="curve" smooth="yes"/>
      <point x="73" y="523"/>
      <point x="4" y="581"/>
      <point x="48" y="633" type="curve" smooth="yes"/>
      <point x="81" y="672"/>
      <point x="107" y="703"/>
      <point x="129" y="729" type="curve" smooth="yes"/>
      <point x="172" y="781"/>
      <point x="241" y="723"/>
    </contour>
  </outline>
</glyph>
<glyph name="caroncmb" format="2">
  <unicode hex="030C"/>
  <anchor x="0" y="497" name="_above"/>
  <anchor x="0" y="698" name="above"/>
  <outline>
    <contour>
      <point x="142" y="656" type="curve" smooth="yes"/>
      <point x="74" y="602"/>
      <point x="57" y="560"/>
      <point x="2" y="560" type="curve" smooth="yes"/>
      <point x="-56" y="560"/>
      <point x="-71" y="603"/>
      <point x="-138" y="656" type="curve" smooth="yes"/>
      <point x="-191" y="697"/>
      <point x="-132" y="769"/>
      <point x="-82" y="726" type="curve" smooth="yes"/>
      <point x="-35" y="685"/>
      <point x="-5" y="651"/>
      <point x="2" y="650" type="curve" smooth="yes"/>
      <point x="11" y="649"/>
      <point x="36" y="682"/>
      <point x="86" y="726" type="curve" smooth="yes"/>
      <point x="137" y="771"/>
      <point x="195" y="697"/>
    </contour>
  </outline>
</glyph>
<glyph name="dieresisbelowcmb" format="2">
  <unicode hex="0324"/>
  <anchor x="0" y="0" name="_below"/>
  <anchor x="0" y="-236" name="below"/>
  <outline>
    <contour>
      <point x="-145" y="-184" type="curve" smooth="yes"/>
      <point x="-145" y="-163"/>
      <point x="-145" y="-156"/>
      <point x="-145" y="-135" type="curve" smooth="yes"/>
      <point x="-145" y="-74"/>
      <point x="-55" y="-74"/>
      <point x="-55" y="-135" type="curve" smooth="yes"/>
      <point x="-55" y="-156"/>
      <point x="-55" y="-163"/>
      <point x="-55" y="-184" type="curve" smooth="yes"/>
      <point x="-55" y="-246"/>
      <point x="-145" y="-246"/>
    </contour>
    <contour>
      <point x="55" y="-184" type="curve" smooth="yes"/>
      <point x="55" y="-163"/>
      <point x="55" y="-156"/>
      <point x="55" y="-135" type="curve" smooth="yes"/>
      <point x="55" y="-74"/>
      <point x="145" y="-74"/>
      <point x="145" y="-135" type="curve" smooth="yes"/>
      <point x="145" y="-156"/>
      <point x="145" y="-163"/>
      <point x="145" y="-184" type="curve" smooth="yes"/>
      <point x="145" y="-246"/>
      <point x="55" y="-246"/>
    </contour>
  </outline>
</glyph>
<glyph name="commaaccentbelowcmb" format="2">
  <unicode hex="0326"/>
  <anchor x="0" y="0" name="_below"/>
  <anchor x="0" y="-218" name="below"/>
  <outline>
    <contour>
      <point x="-54" y="-231" type="curve" smooth="yes"/>
      <point x="-34" y="-198"/>
      <point x="-31" y="-159"/>
      <point x="-31" y="-128" type="curve" smooth="yes"/>
      <point x="-31" y="-60"/>
      <point x="59" y="-60"/>
      <point x="59" y="-128" type="curve" smooth="yes"/>
      <point x="59" y="-174"/>
      <point x="52" y="-228"/>
      <point x="24" y="-277" type="curve" smooth="yes"/>
      <point x="-10" y="-335"/>
      <point x="-88" y="-290"/>
    </contour>
  </outline>
</glyph>
<glyph name="quotedblleft" format="2">
  <advance width="474"/>
  <unicode hex="201C"/>
  <outline>
    <contour>
      <point x="396.0" y="617.0" type="curve" smooth="yes"/>
      <point x="366.0" y="565.0"/>
      <point x="344.0" y="521.0"/>
      <point x="374.0" y="492.0" type="curve" smooth="yes"/>
      <point x="434.0" y="438.0"/>
      <point x="365" y="371"/>
      <point x="315" y="417" type="curve" smooth="yes"/>
      <point x="257" y="470"/>
      <point x="265" y="571"/>
      <point x="320" y="668" type="curve" smooth="yes"/>
      <point x="354" y="726"/>
      <point x="437.0" y="687.0"/>
    </contour>
    <contour>
      <point x="196.0" y="617.0" type="curve" smooth="yes"/>
      <point x="166.0" y="565.0"/>
      <point x="146.0" y="518.0"/>
      <point x="176.0" y="489.0" type="curve" smooth="yes"/>
      <point x="236.0" y="435.0"/>
      <point x="165" y="371"/>
      <point x="115" y="417" type="curve" smooth="yes"/>
      <point x="57" y="470"/>
      <point x="65" y="571"/>
      <point x="120" y="668" type="curve" smooth="yes"/>
      <point x="154" y="726"/>
      <point x="237.0" y="687.0"/>
    </contour>
  </outline>
</glyph>
<glyph name="quotedblbase" format="2">
  <advance width="474"/>
  <unicode hex="201E"/>
  <outline>
    <contour>
      <point x="79.0" y="-86.0" type="curve" smooth="yes"/>
      <point x="109.0" y="-34.0"/>
      <point x="131.0" y="10.0"/>
      <point x="101.0" y="39.0" type="curve" smooth="yes"/>
      <point x="41.0" y="93.0"/>
      <point x="110" y="160"/>
      <point x="160" y="114" type="curve" smooth="yes"/>
      <point x="218" y="61"/>
      <point x="210" y="-40"/>
      <point x="155" y="-137" type="curve" smooth="yes"/>
      <point x="121" y="-195"/>
      <point x="38.0" y="-156.0"/>
    </contour>
    <contour>
      <point x="279.0" y="-86.0" type="curve" smooth="yes"/>
      <point x="309.0" y="-34.0"/>
      <point x="329.0" y="13.0"/>
      <point x="299.0" y="42.0" type="curve" smooth="yes"/>
      <point x="239.0" y="96.0"/>
      <point x="310" y="160"/>
      <point x="360" y="114" type="curve" smooth="yes"/>
      <point x="418" y="61"/>
      <point x="410" y="-40"/>
      <point x="355" y="-137" type="curve" smooth="yes"/>
      <point x="321" y="-195"/>
      <point x="238.0" y="-156.0"/>
    </contour>
  </outline>
</glyph>
<glyph name="fraction" format="2">
  <advance width="568"/>
  <unicode hex="2044"/>
  <outline>
    <contour>
      <point x="510" y="616" type="curve" smooth="yes"/>
      <point x="479" y="568"/>
      <point x="449" y="519"/>
      <point x="420" y="473" type="curve" smooth="yes"/>
      <point x="366" y="386"/>
      <point x="303" y="286"/>
      <point x="235" y="176" type="curve" smooth="yes"/>
      <point x="203" y="124"/>
      <point x="168" y="70"/>
      <point x="134" y="16" type="curve" smooth="yes"/>
      <point x="99" y="-41"/>
      <point x="22" y="6"/>
      <point x="58" y="64" type="curve" smooth="yes"/>
      <point x="90" y="116"/>
      <point x="125" y="170"/>
      <point x="159" y="224" type="curve" smooth="yes"/>
      <point x="213" y="311"/>
      <point x="276" y="411"/>
      <point x="344" y="521" type="curve" smooth="yes"/>
      <point x="375" y="569"/>
      <point x="405" y="618"/>
      <point x="434" y="664" type="curve" smooth="yes"/>
      <point x="470" y="721"/>
      <point x="546" y="673"/>
    </contour>
  </outline>
</glyph>
<glyph name="franc" format="2">
  <advance width="533"/>
  <unicode hex="20A3"/>
  <outline>
    <contour>
      <point x="85" y="215" type="curve" smooth="yes"/>
      <point x="168" y="215"/>
      <point x="237" y="215"/>
      <point x="293" y="215" type="curve" smooth="yes"/>
      <point x="361" y="215"/>
      <point x="361" y="125"/>
      <point x="293" y="125" type="curve" smooth="yes"/>
      <point x="209" y="125"/>
      <point x="141" y="125"/>
      <point x="85" y="125" type="curve" smooth="yes"/>
      <point x="18" y="125"/>
      <point x="18" y="215"/>
    </contour>
    <contour>
      <point x="401" y="285" type="curve" smooth="yes"/>
      <point x="356" y="285"/>
      <point x="254" y="285"/>
      <point x="202" y="285" type="curve" smooth="yes"/>
      <point x="171" y="285"/>
      <point x="170" y="273"/>
      <point x="170" y="233" type="curve" smooth="yes"/>
      <point x="170" y="199"/>
      <point x="170" y="112"/>
      <point x="170" y="40" type="curve" smooth="yes"/>
      <point x="170" y="-28"/>
      <point x="80" y="-28"/>
      <point x="80" y="40" type="curve" smooth="yes"/>
      <point x="80" y="129"/>
      <point x="80" y="478"/>
      <point x="80" y="550" type="curve" smooth="yes"/>
      <point x="80" y="636"/>
      <point x="113" y="680"/>
      <point x="210" y="680" type="curve" smooth="yes"/>
      <point x="245" y="680"/>
      <point x="337" y="680"/>
      <point x="423" y="680" type="curve" smooth="yes"/>
      <point x="490" y="680"/>
      <point x="490" y="590"/>
      <point x="423" y="590" type="curve" smooth="yes"/>
      <point x="365" y="590"/>
      <point x="262" y="590"/>
      <point x="210" y="590" type="curve" smooth="yes"/>
      <point x="169" y="590"/>
      <point x="170" y="586"/>
      <point x="170" y="550" type="curve" smooth="yes"/>
      <point x="170" y="443"/>
      <point x="170" y="167"/>
      <point x="170" y="40" type="curve" smooth="yes"/>
      <point x="170" y="-28"/>
      <point x="80" y="-28"/>
      <point x="80" y="40" type="curve" smooth="yes"/>
      <point x="80" y="88"/>
      <point x="80" y="172"/>
      <point x="80" y="223" type="curve" smooth="yes"/>
      <point x="80" y="325"/>
      <point x="122" y="375"/>
      <point x="202" y="375" type="curve" smooth="yes"/>
      <point x="280" y="375"/>
      <point x="334" y="375"/>
      <point x="401" y="375" type="curve" smooth="yes"/>
      <point x="468" y="375"/>
      <point x="468" y="285"/>
    </contour>
  </outline>
</glyph>
<glyph name="peso" format="2">
  <advance width="620"/>
  <unicode hex="20B1"/>
  <outline>
    <contour>
      <point x="230" y="263" type="curve" smooth="yes"/>
      <point x="257" y="263"/>
      <point x="284" y="263"/>
      <point x="312" y="263" type="curve" smooth="yes"/>
      <point x="388" y="263"/>
      <point x="435" y="326"/>
      <point x="435" y="426" type="curve" smooth="yes"/>
      <point x="435" y="528"/>
      <point x="387" y="590"/>
      <point x="300" y="590" type="curve" smooth="yes"/>
      <point x="263" y="590"/>
      <point x="256" y="590"/>
      <point x="231" y="590" type="curve" smooth="yes"/>
      <point x="196" y="590"/>
      <point x="195" y="587"/>
      <point x="195" y="550" type="curve" smooth="yes"/>
      <point x="195" y="399"/>
      <point x="195" y="270"/>
      <point x="195" y="178" type="curve" smooth="yes"/>
      <point x="195" y="122"/>
      <point x="195" y="78"/>
      <point x="195" y="40" type="curve" smooth="yes"/>
      <point x="195" y="-28"/>
      <point x="105" y="-27"/>
      <point x="105" y="40" type="curve" smooth="yes"/>
      <point x="105" y="96"/>
      <point x="105" y="140"/>
      <point x="105" y="178" type="curve" smooth="yes"/>
      <point x="105" y="314"/>
      <point x="105" y="449"/>
      <point x="105" y="550" type="curve" smooth="yes"/>
      <point x="105" y="640"/>
      <point x="139" y="680"/>
      <point x="231" y="680" type="curve" smooth="yes"/>
      <point x="268" y="680"/>
      <point x="275" y="680"/>
      <point x="300" y="680" type="curve" smooth="yes"/>
      <point x="433" y="680"/>
      <point x="525" y="582"/>
      <point x="525" y="426" type="curve" smooth="yes"/>
      <point x="525" y="268"/>
      <point x="432" y="173"/>
      <point x="312" y="173" type="curve" smooth="yes"/>
      <point x="271" y="173"/>
      <point x="248" y="173"/>
      <point x="230" y="173" type="curve" smooth="yes"/>
      <point x="163" y="173"/>
      <point x="163" y="263"/>
    </contour>
    <contour>
      <point x="60" y="471" type="curve" smooth="yes"/>
      <point x="99" y="471"/>
      <point x="131" y="471"/>
      <point x="160" y="471" type="curve" smooth="yes"/>
      <point x="279" y="471"/>
      <point x="386" y="471"/>
      <point x="472" y="471" type="curve" smooth="yes"/>
      <point x="512" y="471"/>
      <point x="544" y="471"/>
      <point x="570" y="471" type="curve" smooth="yes"/>
      <point x="638" y="471"/>
      <point x="638" y="381"/>
      <point x="570" y="381" type="curve" smooth="yes"/>
      <point x="531" y="381"/>
      <point x="499" y="381"/>
      <point x="472" y="381" type="curve" smooth="yes"/>
      <point x="344" y="381"/>
      <point x="240" y="381"/>
      <point x="160" y="381" type="curve" smooth="yes"/>
      <point x="117" y="381"/>
      <point x="86" y="381"/>
      <point x="60" y="381" type="curve" smooth="yes"/>
      <point x="-7" y="381"/>
      <point x="-7" y="471"/>
    </contour>
  </outline>
</glyph>
<glyph name="arrowup" format="2">
  <advance width="681"/>
  <unicode hex="2191"/>
  <outline>
    <contour>
      <point x="387" y="480" type="curve" smooth="yes"/>
      <point x="387" y="414"/>
      <point x="387" y="375"/>
      <point x="387" y="334" type="curve" smooth="yes"/>
      <point x="387" y="227"/>
      <point x="387" y="147"/>
      <point x="387" y="55" type="curve" smooth="yes"/>
      <point x="387" y="-13"/>
      <point x="297" y="-12"/>
      <point x="297" y="55" type="curve" smooth="yes"/>
      <point x="297" y="191"/>
      <point x="297" y="262"/>
      <point x="297" y="334" type="curve" smooth="yes"/>
      <point x="297" y="395"/>
      <point x="297" y="436"/>
      <point x="297" y="480" type="curve" smooth="yes"/>
      <point x="297" y="548"/>
      <point x="387" y="548"/>
    </contour>
    <contour>
      <point x="64" y="373" type="curve" smooth="yes"/>
      <point x="118" y="426"/>
      <point x="171" y="479"/>
      <point x="225" y="533" type="curve" smooth="yes"/>
      <point x="325" y="633"/>
      <point x="359" y="631"/>
      <point x="458" y="533" type="curve" smooth="yes"/>
      <point x="511" y="481"/>
      <point x="565" y="426"/>
      <point x="618" y="373" type="curve" smooth="yes"/>
      <point x="666" y="325"/>
      <point x="602" y="261"/>
      <point x="554" y="309" type="curve" smooth="yes"/>
      <point x="501" y="362"/>
      <point x="449" y="417"/>
      <point x="394" y="469" type="curve" smooth="yes"/>
      <point x="336" y="527"/>
      <point x="348" y="528"/>
      <point x="289" y="469" type="curve" smooth="yes"/>
      <point x="235" y="415"/>
      <point x="182" y="362"/>
      <point x="128" y="309" type="curve" smooth="yes"/>
      <point x="79" y="262"/>
      <point x="16" y="326"/>
    </contour>
  </outline>
</glyph>
<glyph name="arrowSW" format="2">
  <advance width="673"/>
  <unicode hex="2199"/>
  <outline>
    <contour>
      <point x="590" y="491" type="curve" smooth="yes"/>
      <point x="507" y="410"/>
      <point x="420" y="320"/>
      <point x="360" y="260" type="curve" smooth="yes"/>
      <point x="325" y="224"/>
      <point x="295" y="195"/>
      <point x="257" y="157" type="curve" smooth="yes"/>
      <point x="209" y="109"/>
      <point x="145" y="173"/>
      <point x="193" y="221" type="curve" smooth="yes"/>
      <point x="231" y="259"/>
      <point x="261" y="288"/>
      <point x="296" y="324" type="curve" smooth="yes"/>
      <point x="358" y="386"/>
      <point x="446" y="476"/>
      <point x="526" y="555" type="curve" smooth="yes"/>
      <point x="574" y="602"/>
      <point x="638" y="538"/>
    </contour>
    <contour>
      <point x="496" y="69" type="curve" smooth="yes"/>
      <point x="422" y="69"/>
      <point x="345" y="68"/>
      <point x="269" y="69" type="curve" smooth="yes"/>
      <point x="130" y="70"/>
      <point x="105" y="92"/>
      <point x="105" y="234" type="curve" smooth="yes"/>
      <point x="105" y="310"/>
      <point x="105" y="385"/>
      <point x="104" y="460" type="curve" smooth="yes"/>
      <point x="103" y="528"/>
      <point x="193" y="529"/>
      <point x="194" y="462" type="curve" smooth="yes"/>
      <point x="195" y="385"/>
      <point x="195" y="310"/>
      <point x="195" y="234" type="curve" smooth="yes"/>
      <point x="195" y="150"/>
      <point x="188" y="160"/>
      <point x="271" y="159" type="curve" smooth="yes"/>
      <point x="345" y="158"/>
      <point x="421" y="159"/>
      <point x="496" y="159" type="curve" smooth="yes"/>
      <point x="564" y="159"/>
      <point x="564" y="69"/>
    </contour>
  </outline>
</glyph>
<glyph name="divisionslash" format="2">
  <advance width="518"/>
  <unicode hex="2215"/>
  <outline>
    <contour>
      <point x="487" y="669" type="curve" smooth="yes"/>
      <point x="467" y="632"/>
      <point x="449" y="597"/>
      <point x="431" y="562" type="curve" smooth="yes"/>
      <point x="358" y="421"/>
      <point x="283" y="279"/>
      <point x="209" y="138" type="curve" smooth="yes"/>
      <point x="176" y="74"/>
      <point x="143" y="14"/>
      <point x="111" y="-50" type="curve" smooth="yes"/>
      <point x="81" y="-110"/>
      <point x="1" y="-70"/>
      <point x="31" y="-10" type="curve" smooth="yes"/>
      <point x="63" y="54"/>
      <point x="96" y="116"/>
      <point x="129" y="180" type="curve" smooth="yes"/>
      <point x="203" y="321"/>
      <point x="278" y="463"/>
      <point x="351" y="604" type="curve" smooth="yes"/>
      <point x="371" y="641"/>
      <point x="389" y="676"/>
      <point x="407" y="711" type="curve" smooth="yes"/>
      <point x="439" y="771"/>
      <point x="518" y="729"/>
    </contour>
  </outline>
</glyph>
<glyph name="wineGlass" format="2">
  <advance width="764"/>
  <unicode hex="1F377"/>
  <outline>
    <contour>
      <point x="227.0" y="8.0" type="curve" smooth="yes"/>
      <point x="160.0" y="8.0"/>
      <point x="160.0" y="98.0"/>
      <point x="227.0" y="98.0" type="curve" smooth="yes"/>
      <point x="295.0" y="98.0"/>
      <point x="475.0" y="98.0"/>
      <point x="543.0" y="98.0" type="curve" smooth="yes"/>
      <point x="610.0" y="98.0"/>
      <point x="610" y="8"/>
      <point x="543.0" y="8.0" type="curve" smooth="yes"/>
      <point x="447.0" y="8.0"/>
      <point x="333" y="32"/>
      <point x="333" y="101" type="curve" smooth="yes"/>
      <point x="332" y="143"/>
      <point x="333" y="167"/>
      <point x="333" y="218" type="curve" smooth="yes"/>
      <point x="333" y="279"/>
      <point x="352" y="315"/>
      <point x="434" y="331" type="curve" smooth="yes"/>
      <point x="526" y="349"/>
      <point x="569" y="434"/>
      <point x="569" y="566" type="curve" smooth="yes"/>
      <point x="569" y="596"/>
      <point x="565" y="590"/>
      <point x="538" y="590" type="curve" smooth="yes"/>
      <point x="405" y="590"/>
      <point x="300" y="590"/>
      <point x="210" y="590" type="curve" smooth="yes"/>
      <point x="182" y="590"/>
      <point x="180" y="593"/>
      <point x="180" y="562" type="curve" smooth="yes"/>
      <point x="180" y="496"/>
      <point x="184" y="454"/>
      <point x="209" y="411" type="curve" smooth="yes"/>
      <point x="234" y="369"/>
      <point x="275" y="340"/>
      <point x="325" y="328" type="curve" smooth="yes"/>
      <point x="391" y="312"/>
      <point x="370" y="225"/>
      <point x="305" y="240" type="curve" smooth="yes"/>
      <point x="229" y="258"/>
      <point x="168" y="303"/>
      <point x="131" y="365" type="curve" smooth="yes"/>
      <point x="98" y="422"/>
      <point x="90" y="475"/>
      <point x="90" y="562" type="curve" smooth="yes"/>
      <point x="90" y="651"/>
      <point x="130" y="680"/>
      <point x="210" y="680" type="curve" smooth="yes"/>
      <point x="344" y="680"/>
      <point x="449" y="680"/>
      <point x="538" y="680" type="curve" smooth="yes"/>
      <point x="623" y="680"/>
      <point x="659" y="658"/>
      <point x="659" y="566" type="curve" smooth="yes"/>
      <point x="659" y="379"/>
      <point x="581" y="267"/>
      <point x="452" y="243" type="curve" smooth="yes"/>
      <point x="424" y="237"/>
      <point x="423" y="238"/>
      <point x="423" y="218" type="curve" smooth="yes"/>
      <point x="423" y="169"/>
      <point x="422.0" y="143.0"/>
      <point x="422.0" y="124.0" type="curve" smooth="yes"/>
      <point x="422.0" y="98.0"/>
      <point x="475.0" y="98.0"/>
      <point x="543.0" y="98.0" type="curve" smooth="yes"/>
      <point x="610.0" y="98.0"/>
      <point x="610.0" y="8.0"/>
      <point x="543.0" y="8.0" type="curve" smooth="yes"/>
      <point x="497.0" y="8.0"/>
      <point x="273.0" y="8.0"/>
      <point x="227.0" y="8.0" type="curve" smooth="yes"/>
      <point x="160.0" y="8.0"/>
      <point x="160.0" y="98.0"/>
      <point x="227.0" y="98.0" type="curve" smooth="yes"/>
      <point x="295.0" y="98.0"/>
      <point x="273.0" y="8.0"/>
    </contour>
  </outline>
</glyph>
<glyph name=".notdef" format="2">
  <advance width="500"/>
  <outline>
    <contour>
      <point x="100" y="-155" type="curve" smooth="yes"/>
      <point x="75" y="-155"/>
      <point x="55" y="-135"/>
      <point x="55" y="-110" type="curve"/>
      <point x="55" y="170"/>
      <point x="55" y="492"/>
      <point x="55" y="680" type="curve"/>
      <point x="55" y="705"/>
      <point x="75" y="725"/>
      <point x="100" y="725" type="curve" smooth="yes"/>
      <point x="182" y="725"/>
      <point x="345" y="725"/>
      <point x="400" y="725" type="curve" smooth="yes"/>
      <point x="425" y="725"/>
      <point x="445" y="705"/>
      <point x="445" y="680" type="curve" smooth="yes"/>
      <point x="445" y="400"/>
      <point x="445" y="78"/>
      <point x="445" y="-110" type="curve" smooth="yes"/>
      <point x="445" y="-135"/>
      <point x="425" y="-155"/>
      <point x="400" y="-155" type="curve" smooth="yes"/>
      <point x="318" y="-155"/>
      <point x="155" y="-155"/>
    </contour>
    <contour>
      <point x="100" y="-65" type="line"/>
      <point x="182" y="-65"/>
      <point x="345" y="-65"/>
      <point x="400" y="-65" type="curve"/>
      <point x="355" y="-110" type="line"/>
      <point x="355" y="170"/>
      <point x="355" y="492"/>
      <point x="355" y="680" type="curve"/>
      <point x="400" y="635" type="line"/>
      <point x="318" y="635"/>
      <point x="155" y="635"/>
      <point x="100" y="635" type="curve"/>
      <point x="145" y="680" type="line"/>
      <point x="145" y="400"/>
      <point x="145" y="78"/>
      <point x="145" y="-110" type="curve"/>
    </contour>
  </outline>
</glyph>
<glyph name="t.alt" format="2">
  <advance width="336"/>
  <anchor x="170" y="630" name="above"/>
  <anchor x="233" y="3" name="below"/>
  <anchor x="213" y="533" name="right"/>
  <outline>
    <contour>
      <point x="278.9869021565156" y="407.98690693880974" type="curve" smooth="yes"/>
      <point x="245" y="408"/>
      <point x="240.98651268946492" y="407.98832494828764"/>
      <point x="221.98548440904835" y="407.99039786508456" type="curve" smooth="yes"/>
      <point x="181.65261454943166" y="407.994797978708"/>
      <point x="151.33811491066405" y="407.99535213482807"/>
      <point x="110.99592157096545" y="407.99039793661655" type="curve" smooth="yes"/>
      <point x="93.9910325520846" y="407.98830966169163"/>
      <point x="89" y="408"/>
      <point x="56.98690553776898" y="407.98690693880974" type="curve" smooth="yes"/>
      <point x="-11" y="408"/>
      <point x="-11" y="498"/>
      <point x="56.986905537769" y="497.98690693880974" type="curve" smooth="yes"/>
      <point x="89" y="498"/>
      <point x="90.26858270219859" y="497.98785320717127"/>
      <point x="110.98486917650466" y="497.99039725797536" type="curve" smooth="yes"/>
      <point x="147.99548944303143" y="497.9949423244069"/>
      <point x="184.9932362112192" y="497.99443406923234"/>
      <point x="221.9953029571684" y="497.99039732950735" type="curve" smooth="yes"/>
      <point x="242.686034414957" y="497.9881400745766"/>
      <point x="243" y="498"/>
      <point x="278.9869021565156" y="497.98690693880974" type="curve" smooth="yes"/>
      <point x="346" y="498"/>
      <point x="346" y="408"/>
    </contour>
    <contour>
      <point x="341.6981610040833" y="14.529620932197993" type="curve" smooth="yes"/>
      <point x="232.24660909765637" y="-38.82801141455133"/>
      <point x="117.97906338268294" y="11.74162538822084"/>
      <point x="117.97905950680911" y="138.97905636893069" type="curve" smooth="yes"/>
      <point x="117.97905614441255" y="249.3600225546947"/>
      <point x="117.97905409115617" y="316.7644546299233"/>
      <point x="117.97904963720481" y="462.97905143412856" type="curve" smooth="yes"/>
      <point x="117.97904836696614" y="504.6785275487505"/>
      <point x="118" y="543"/>
      <point x="117.98131480746416" y="587.9834410559511" type="curve" smooth="yes"/>
      <point x="118" y="655"/>
      <point x="207.98449654780322" y="655.4791985271839"/>
      <point x="207.98131470747296" y="587.9791986021773" type="curve" smooth="yes"/>
      <point x="207.9791894756781" y="542.8942379824182"/>
      <point x="207.97904774427545" y="525.1202578174717"/>
      <point x="207.97904963720475" y="462.9790541756853" type="curve" smooth="yes"/>
      <point x="207.97905262600173" y="364.8626397883396"/>
      <point x="207.97905449611378" y="303.4704805152184"/>
      <point x="207.97905950680905" y="138.97905911048747" type="curve" smooth="yes"/>
      <point x="207.97906127998195" y="80.76922667815639"/>
      <point x="252.18698489194057" y="71.01792221502892"/>
      <point x="302.2599582836905" y="95.42849710600649" type="curve" smooth="yes"/>
      <point x="362.93411541404686" y="125.0071491463011"/>
      <point x="402.3723181344397" y="44.10827297249261"/>
    </contour>
  </outline>
</glyph>
<glyph name="tbar.alt" format="2">
  <advance width="403"/>
  <anchor x="174" y="640" name="above"/>
  <anchor x="174" y="0" name="below"/>
  <anchor x="247" y="504" name="right"/>
  <outline>
    <contour>
      <point x="77" y="338" type="curve" smooth="yes"/>
      <point x="153" y="338"/>
      <point x="217" y="338"/>
      <point x="269" y="338" type="curve" smooth="yes"/>
      <point x="337" y="338"/>
      <point x="337" y="248"/>
      <point x="269" y="248" type="curve" smooth="yes"/>
      <point x="191" y="248"/>
      <point x="128" y="248"/>
      <point x="77" y="248" type="curve" smooth="yes"/>
      <point x="10" y="248"/>
      <point x="10" y="338"/>
    </contour>
    <component base="t.alt"/>
  </outline>
</glyph>
